<svg xmlns="http://www.w3.org/2000/svg" viewBox="0 0 32 22" role="img" aria-label="United States flag">
  <rect width="32" height="22" fill="#b22234"/>
  <path d="M0 2h32v2H0zm0 4h32v2H0zm0 4h32v2H0zm0 4h32v2H0zm0 4h32v2H0z" fill="#fff"/>
  <rect width="14" height="12" fill="#3c3b6e"/>
  <g fill="#fff">
    <circle cx="2" cy="2" r=".55"/><circle cx="5" cy="2" r=".55"/><circle cx="8" cy="2" r=".55"/><circle cx="11" cy="2" r=".55"/>
    <circle cx="3.5" cy="4" r=".55"/><circle cx="6.5" cy="4" r=".55"/><circle cx="9.5" cy="4" r=".55"/><circle cx="12.5" cy="4" r=".55"/>
    <circle cx="2" cy="6" r=".55"/><circle cx="5" cy="6" r=".55"/><circle cx="8" cy="6" r=".55"/><circle cx="11" cy="6" r=".55"/>
    <circle cx="3.5" cy="8" r=".55"/><circle cx="6.5" cy="8" r=".55"/><circle cx="9.5" cy="8" r=".55"/><circle cx="12.5" cy="8" r=".55"/>
    <circle cx="2" cy="10" r=".55"/><circle cx="5" cy="10" r=".55"/><circle cx="8" cy="10" r=".55"/><circle cx="11" cy="10" r=".55"/>
  </g>
</svg>
